<svg width="12" height="11" viewBox="0 0 12 11" fill="none" xmlns="http://www.w3.org/2000/svg">
<g clip-path="url(#clip0_223_9768)">
<path d="M6.91072 5.32523C6.92765 5.32525 6.94421 5.32026 6.95832 5.3109C6.97242 5.30154 6.98345 5.28822 6.99001 5.27261C6.99658 5.257 6.99838 5.23981 6.99521 5.22318C6.99203 5.20655 6.98402 5.19123 6.97217 5.17914L5.28779 3.4664C5.27582 3.45425 5.26051 3.44593 5.24379 3.44251C5.22708 3.43909 5.20973 3.44072 5.19395 3.4472C5.17816 3.45367 5.16467 3.46469 5.15517 3.47887C5.14567 3.49304 5.14061 3.50972 5.14063 3.52677V5.06742C5.14063 5.13579 5.16779 5.20137 5.21614 5.24972C5.26449 5.29807 5.33006 5.32523 5.39844 5.32523H6.91072Z" fill="#0D0D0D"/>
<path d="M4.73242 5.73349C4.64418 5.64643 4.57406 5.54275 4.52612 5.42843C4.47818 5.31412 4.45337 5.19143 4.45312 5.06747V3.09091H2.90625C2.54191 3.09199 2.1928 3.2372 1.93517 3.49483C1.67754 3.75246 1.53233 4.10157 1.53125 4.46591V9.27841C1.53125 9.64308 1.67612 9.99282 1.93398 10.2507C2.19184 10.5085 2.54158 10.6534 2.90625 10.6534H6C6.36467 10.6534 6.71441 10.5085 6.97227 10.2507C7.23013 9.99282 7.375 9.64308 7.375 9.27841V6.01279H5.39844C5.27447 6.01261 5.15176 5.98783 5.03744 5.93989C4.92311 5.89195 4.81944 5.82179 4.73242 5.73349Z" fill="#0D0D0D"/>
<path d="M8.49219 2.57499H10.0045C10.0214 2.575 10.038 2.57001 10.0521 2.56065C10.0662 2.55129 10.0772 2.53797 10.0838 2.52237C10.0903 2.50676 10.0921 2.48956 10.089 2.47293C10.0858 2.4563 10.0778 2.44098 10.0659 2.42889L8.38154 0.716159C8.36957 0.704004 8.35426 0.695687 8.33754 0.692267C8.32083 0.688846 8.30348 0.690477 8.2877 0.696951C8.27191 0.703425 8.25842 0.71445 8.24892 0.728622C8.23942 0.742794 8.23436 0.759471 8.23438 0.77653V2.31717C8.23438 2.38555 8.26154 2.45113 8.30989 2.49947C8.35824 2.54782 8.42381 2.57499 8.49219 2.57499Z" fill="#0D0D0D"/>
<path d="M8.49219 3.26254C8.24206 3.26063 8.00273 3.16042 7.82586 2.98355C7.64899 2.80669 7.54878 2.56735 7.54687 2.31723V0.340668H5.22656C4.8848 0.341066 4.55716 0.477005 4.3155 0.718665C4.07384 0.960325 3.9379 1.28797 3.9375 1.62973V2.40317H4.84242C4.95793 2.40363 5.0722 2.42691 5.17868 2.47167C5.28516 2.51643 5.38175 2.58179 5.46289 2.66399L7.80812 5.04875C7.97174 5.21476 8.06309 5.43872 8.06228 5.6718V8.59067H9.20203C9.90049 8.59067 10.4685 8.01231 10.4685 7.3016V3.26254H8.49219Z" fill="#0D0D0D"/>
</g>
<defs>
<clipPath id="clip0_223_9768">
<rect width="11" height="11" fill="white" transform="translate(0.5 -0.00283813)"/>
</clipPath>
</defs>
</svg>
