<svg width="11" height="11" viewBox="0 0 11 11" fill="none" xmlns="http://www.w3.org/2000/svg">
<path d="M9.83821 2.58686C9.81346 2.53872 9.77768 2.49711 9.7338 2.46541C9.68992 2.43371 9.63918 2.41282 9.58569 2.40444C9.53221 2.39607 9.47751 2.40044 9.42604 2.41721C9.37457 2.43397 9.32779 2.46266 9.2895 2.50092L7.9695 3.82178C7.9047 3.88564 7.81738 3.92144 7.7264 3.92144C7.63543 3.92144 7.54811 3.88564 7.48331 3.82178L6.91268 3.2503C6.88076 3.21838 6.85543 3.18048 6.83815 3.13877C6.82087 3.09706 6.81197 3.05235 6.81197 3.0072C6.81197 2.96206 6.82087 2.91735 6.83815 2.87564C6.85543 2.83393 6.88076 2.79603 6.91268 2.76411L8.2271 1.44948C8.2665 1.41008 8.29574 1.3617 8.31229 1.30849C8.32883 1.25528 8.3322 1.19885 8.3221 1.14405C8.31199 1.08926 8.28872 1.03774 8.25428 0.993935C8.21984 0.950131 8.17527 0.915356 8.1244 0.892605V0.892605C7.13161 0.448738 5.89239 0.68034 5.11101 1.45593C4.44714 2.11507 4.24927 3.14503 4.56853 4.28176C4.58574 4.34238 4.58584 4.40658 4.56881 4.46725C4.55179 4.52793 4.5183 4.5827 4.47206 4.62551L0.895343 7.89221C0.756005 8.01732 0.643613 8.1695 0.565026 8.33947C0.486438 8.50944 0.443301 8.69364 0.438246 8.88084C0.433192 9.06803 0.466326 9.25429 0.535627 9.42826C0.604927 9.60222 0.708942 9.76025 0.841327 9.89269C0.973711 10.0251 1.13169 10.1292 1.30562 10.1986C1.47956 10.268 1.66581 10.3012 1.853 10.2962C2.0402 10.2912 2.22442 10.2482 2.39442 10.1697C2.56443 10.0912 2.71666 9.97884 2.84183 9.83956L6.14354 6.25489C6.18574 6.20925 6.23959 6.17598 6.29929 6.15868C6.359 6.14138 6.42229 6.1407 6.48235 6.1567C6.80598 6.24538 7.13981 6.29139 7.47536 6.29356C8.19294 6.29356 8.82264 6.06131 9.27682 5.61379C10.1179 4.78514 10.2462 3.37964 9.83821 2.58686ZM1.88771 9.6043C1.74621 9.61975 1.60341 9.59089 1.47901 9.52172C1.35461 9.45255 1.25475 9.34648 1.1932 9.21813C1.13165 9.08979 1.11146 8.94551 1.13541 8.8052C1.15935 8.66489 1.22626 8.53548 1.32688 8.43481C1.42751 8.33415 1.55691 8.2672 1.69721 8.2432C1.83751 8.21921 1.9818 8.23935 2.11016 8.30085C2.23852 8.36235 2.34464 8.46218 2.41385 8.58655C2.48306 8.71093 2.51197 8.85372 2.49657 8.99522C2.47963 9.15091 2.41005 9.29615 2.29933 9.40691C2.18861 9.51767 2.04339 9.58731 1.88771 9.6043V9.6043Z" fill="#0D0D0D"/>
</svg>
